<svg width="24" height="21" viewBox="0 0 24 21" fill="none" xmlns="http://www.w3.org/2000/svg">
<path d="M15.5 4C14.95 4 14.4792 3.80417 14.0875 3.4125C13.6958 3.02083 13.5 2.55 13.5 2C13.5 1.45 13.6958 0.979167 14.0875 0.5875C14.4792 0.195833 14.95 0 15.5 0C16.05 0 16.5208 0.195833 16.9125 0.5875C17.3042 0.979167 17.5 1.45 17.5 2C17.5 2.55 17.3042 3.02083 16.9125 3.4125C16.5208 3.80417 16.05 4 15.5 4ZM10.8 9L13 11.3V17.5H11V12.5L7.8 9.7C7.56667 9.5 7.40833 9.29167 7.325 9.075C7.24167 8.85833 7.2 8.6 7.2 8.3C7.2 8 7.24583 7.74583 7.3375 7.5375C7.42917 7.32917 7.58333 7.11667 7.8 6.9L10.6 4.1C10.8167 3.88333 11.0458 3.72917 11.2875 3.6375C11.5292 3.54583 11.8 3.5 12.1 3.5C12.4 3.5 12.6708 3.54583 12.9125 3.6375C13.1542 3.72917 13.3833 3.88333 13.6 4.1L15.5 6C15.95 6.45 16.475 6.8125 17.075 7.0875C17.675 7.3625 18.35 7.5 19.1 7.5V9.5C18.05 9.5 17.1 9.3125 16.25 8.9375C15.4 8.5625 14.65 8.05 14 7.4L13.2 6.6L10.8 9ZM5 10.5C6.41667 10.5 7.60417 10.9792 8.5625 11.9375C9.52083 12.8958 10 14.0833 10 15.5C10 16.9167 9.52083 18.1042 8.5625 19.0625C7.60417 20.0208 6.41667 20.5 5 20.5C3.58333 20.5 2.39583 20.0208 1.4375 19.0625C0.479167 18.1042 0 16.9167 0 15.5C0 14.0833 0.479167 12.8958 1.4375 11.9375C2.39583 10.9792 3.58333 10.5 5 10.5ZM5 19C5.95 19 6.77083 18.6542 7.4625 17.9625C8.15417 17.2708 8.5 16.45 8.5 15.5C8.5 14.55 8.15417 13.7292 7.4625 13.0375C6.77083 12.3458 5.95 12 5 12C4.05 12 3.22917 12.3458 2.5375 13.0375C1.84583 13.7292 1.5 14.55 1.5 15.5C1.5 16.45 1.84583 17.2708 2.5375 17.9625C3.22917 18.6542 4.05 19 5 19ZM19 10.5C20.4167 10.5 21.6042 10.9792 22.5625 11.9375C23.5208 12.8958 24 14.0833 24 15.5C24 16.9167 23.5208 18.1042 22.5625 19.0625C21.6042 20.0208 20.4167 20.5 19 20.5C17.5833 20.5 16.3958 20.0208 15.4375 19.0625C14.4792 18.1042 14 16.9167 14 15.5C14 14.0833 14.4792 12.8958 15.4375 11.9375C16.3958 10.9792 17.5833 10.5 19 10.5ZM19 19C19.95 19 20.7708 18.6542 21.4625 17.9625C22.1542 17.2708 22.5 16.45 22.5 15.5C22.5 14.55 22.1542 13.7292 21.4625 13.0375C20.7708 12.3458 19.95 12 19 12C18.05 12 17.2292 12.3458 16.5375 13.0375C15.8458 13.7292 15.5 14.55 15.5 15.5C15.5 16.45 15.8458 17.2708 16.5375 17.9625C17.2292 18.6542 18.05 19 19 19Z" fill="black"/>
</svg>
