<svg width="50" height="50" viewBox="0 0 50 50" fill="none" xmlns="http://www.w3.org/2000/svg">
<rect width="50" height="50" rx="10" fill="#A47850"/>
<path d="M31.2176 27.5648L22.4352 18.7824L31.2176 10L40 18.7824L31.2176 27.5648ZM10 24.456V12.0207H22.4352V24.456H10ZM25.544 40V27.5648H37.9793V40H25.544ZM10 40V27.5648H22.4352V40H10ZM13.1088 21.3472H19.3264V15.1295H13.1088V21.3472ZM31.2565 23.2124L35.6477 18.8212L31.2565 14.4301L26.8653 18.8212L31.2565 23.2124ZM28.6529 36.8912H34.8705V30.6736H28.6529V36.8912ZM13.1088 36.8912H19.3264V30.6736H13.1088V36.8912Z" fill="#CCD3AE"/>
</svg>
