<svg width="20" height="20" viewBox="0 0 20 20" fill="none" xmlns="http://www.w3.org/2000/svg">
<path d="M0 13.75V17.5C0 18.1875 0.195833 18.776 0.5875 19.2656C0.979167 19.7552 1.45 20 2 20H18C18.55 20 19.0208 19.7552 19.4125 19.2656C19.8042 18.776 20 18.1875 20 17.5V13.75H18V17.5H2V13.75H0ZM2 0C1.45 0 0.979167 0.244791 0.5875 0.734375C0.195833 1.22396 0 1.8125 0 2.5V6.25H2V2.5H18V6.25H20V2.5C20 1.8125 19.8042 1.22396 19.4125 0.734375C19.0208 0.244791 18.55 0 18 0H2ZM8 3.75C8.18333 3.75 8.35833 3.80729 8.525 3.92188C8.69167 4.03646 8.81667 4.20833 8.9 4.4375L12 12.1875L13.1 9.4375C13.1833 9.20833 13.3083 9.03646 13.475 8.92188C13.6417 8.80729 13.8167 8.75 14 8.75H20V11.25H14.625L12.9 15.5625C12.8167 15.7917 12.6917 15.9531 12.525 16.0469C12.3583 16.1406 12.1833 16.1875 12 16.1875C11.8167 16.1875 11.6417 16.1406 11.475 16.0469C11.3083 15.9531 11.1833 15.7917 11.1 15.5625L8 7.8125L6.9 10.5625C6.81667 10.7917 6.69167 10.9635 6.525 11.0781C6.35833 11.1927 6.18333 11.25 6 11.25H0V8.75H5.375L7.1 4.4375C7.18333 4.20833 7.30833 4.03646 7.475 3.92188C7.64167 3.80729 7.81667 3.75 8 3.75Z" fill="black"/>
</svg>
