<svg width="12" height="13" viewBox="0 0 12 13" fill="none" xmlns="http://www.w3.org/2000/svg">
<path d="M3.525 10.0455C2.755 10.0455 2.17 9.76477 1.77 9.20341C1.37 8.64205 1.18 8.01174 1.2 7.3125L0.93 6.91364C0.82 6.74621 0.6375 6.36705 0.3825 5.77614C0.1275 5.18523 0 4.44167 0 3.54545C0 2.53106 0.255 1.68655 0.765 1.01193C1.275 0.337311 1.92 0 2.7 0C3.55 0 4.2125 0.37178 4.6875 1.11534C5.1625 1.8589 5.4 2.66894 5.4 3.54545C5.4 4.11667 5.32 4.64356 5.16 5.12614C5 5.60871 4.86 5.99773 4.74 6.29318L4.86 6.48523C4.94 6.62311 5.05 6.84223 5.19 7.14261C5.33 7.44299 5.4 7.75568 5.4 8.08068C5.4 8.64205 5.2225 9.10985 4.8675 9.48409C4.5125 9.85833 4.065 10.0455 3.525 10.0455ZM1.95 6.26364L3.6 5.93864C3.73 5.62348 3.8625 5.26402 3.9975 4.86023C4.1325 4.45644 4.2 4.01818 4.2 3.54545C4.2 2.95455 4.0625 2.41288 3.7875 1.92045C3.5125 1.42803 3.15 1.18182 2.7 1.18182C2.25 1.18182 1.8875 1.42803 1.6125 1.92045C1.3375 2.41288 1.2 2.95455 1.2 3.54545C1.2 4.16591 1.2875 4.71496 1.4625 5.19261C1.6375 5.67027 1.8 6.02727 1.95 6.26364ZM3.525 8.86364C3.715 8.86364 3.875 8.7947 4.005 8.65682C4.135 8.51894 4.2 8.32689 4.2 8.08068C4.2 7.91326 4.16 7.74091 4.08 7.56364C4 7.38636 3.92 7.22879 3.84 7.09091L2.4 7.38636C2.4 7.7803 2.4875 8.125 2.6625 8.42045C2.8375 8.71591 3.125 8.86364 3.525 8.86364ZM8.475 13C7.935 13 7.4875 12.8129 7.1325 12.4386C6.7775 12.0644 6.6 11.5966 6.6 11.0352C6.6 10.7102 6.67 10.3975 6.81 10.0972C6.95 9.79678 7.06 9.57765 7.14 9.43977L7.26 9.24773C7.14 8.95227 7 8.56326 6.84 8.08068C6.68 7.59811 6.6 7.07121 6.6 6.5C6.6 5.62348 6.8375 4.81345 7.3125 4.06989C7.7875 3.32633 8.45 2.95455 9.3 2.95455C10.08 2.95455 10.725 3.29186 11.235 3.96648C11.745 4.6411 12 5.48561 12 6.5C12 7.39621 11.8725 8.13731 11.6175 8.7233C11.3625 9.30928 11.18 9.68598 11.07 9.85341L10.8 10.267C10.81 10.9663 10.6175 11.5966 10.2225 12.158C9.8275 12.7193 9.245 13 8.475 13ZM10.05 9.21818C10.2 8.98182 10.3625 8.62727 10.5375 8.15455C10.7125 7.68182 10.8 7.1303 10.8 6.5C10.8 5.90909 10.6625 5.36742 10.3875 4.875C10.1125 4.38258 9.75 4.13636 9.3 4.13636C8.85 4.13636 8.4875 4.38258 8.2125 4.875C7.9375 5.36742 7.8 5.90909 7.8 6.5C7.8 6.97273 7.8675 7.40852 8.0025 7.80739C8.1375 8.20625 8.27 8.56818 8.4 8.89318L10.05 9.21818ZM8.475 11.8182C8.875 11.8182 9.1625 11.6705 9.3375 11.375C9.5125 11.0795 9.6 10.7348 9.6 10.3409L8.16 10.0455C8.08 10.1833 8 10.3409 7.92 10.5182C7.84 10.6955 7.8 10.8678 7.8 11.0352C7.8 11.2322 7.8625 11.4119 7.9875 11.5744C8.1125 11.7369 8.275 11.8182 8.475 11.8182Z" fill="black"/>
</svg>
