<svg width="17" height="15" viewBox="0 0 17 15" fill="none" xmlns="http://www.w3.org/2000/svg">
<path d="M8.5 15C8.245 15 8.00062 14.9549 7.76688 14.8646C7.53312 14.7743 7.32417 14.6389 7.14 14.4583L1.445 8.85417C0.949167 8.36806 0.584375 7.8125 0.350625 7.1875C0.116875 6.5625 0 5.90972 0 5.22917C0 3.79861 0.474583 2.56944 1.42375 1.54167C2.37292 0.513889 3.55583 0 4.9725 0C5.6525 0 6.29354 0.131944 6.89563 0.395833C7.49771 0.659722 8.0325 1.02778 8.5 1.5C8.95333 1.02778 9.48104 0.659722 10.0831 0.395833C10.6852 0.131944 11.3263 0 12.0063 0C13.4229 0 14.6094 0.513889 15.5656 1.54167C16.5219 2.56944 17 3.79167 17 5.20833C17 5.88889 16.8796 6.54167 16.6388 7.16667C16.3979 7.79167 16.0367 8.34722 15.555 8.83333L9.83875 14.4583C9.65458 14.6389 9.44917 14.7743 9.2225 14.8646C8.99583 14.9549 8.755 15 8.5 15ZM9.35 4.16667C9.49167 4.16667 9.62625 4.20139 9.75375 4.27083C9.88125 4.34028 9.98042 4.43056 10.0513 4.54167L11.4963 6.66667H15.0238C15.1229 6.43056 15.1973 6.19097 15.2469 5.94792C15.2965 5.70486 15.3212 5.45833 15.3212 5.20833C15.2929 4.25 14.9671 3.42708 14.3438 2.73958C13.7204 2.05208 12.9412 1.70833 12.0063 1.70833C11.5671 1.70833 11.1456 1.79167 10.7419 1.95833C10.3381 2.125 9.9875 2.36806 9.69 2.6875L9.11625 3.29167C9.04542 3.375 8.95333 3.44097 8.84 3.48958C8.72667 3.53819 8.61333 3.5625 8.5 3.5625C8.38667 3.5625 8.27333 3.53819 8.16 3.48958C8.04667 3.44097 7.9475 3.375 7.8625 3.29167L7.28875 2.6875C6.99125 2.36806 6.64417 2.11806 6.2475 1.9375C5.85083 1.75694 5.42583 1.66667 4.9725 1.66667C4.0375 1.66667 3.25833 2.01736 2.635 2.71875C2.01167 3.42014 1.7 4.25 1.7 5.20833C1.7 5.45833 1.72125 5.70486 1.76375 5.94792C1.80625 6.19097 1.87708 6.43056 1.97625 6.66667H5.95C6.09167 6.66667 6.22625 6.70139 6.35375 6.77083C6.48125 6.84028 6.58042 6.93056 6.65125 7.04167L7.395 8.125L8.5425 4.75C8.59917 4.58333 8.70187 4.44444 8.85063 4.33333C8.99938 4.22222 9.16583 4.16667 9.35 4.16667ZM9.605 6.875L8.4575 10.25C8.40083 10.4167 8.29458 10.5556 8.13875 10.6667C7.98292 10.7778 7.81292 10.8333 7.62875 10.8333C7.48708 10.8333 7.3525 10.7986 7.225 10.7292C7.0975 10.6597 6.99833 10.5694 6.9275 10.4583L5.4825 8.33333H3.315L8.35125 13.2708C8.37958 13.2986 8.40438 13.316 8.42562 13.3229C8.44687 13.3299 8.47167 13.3333 8.5 13.3333C8.52833 13.3333 8.55313 13.3299 8.57438 13.3229C8.59562 13.316 8.62042 13.2986 8.64875 13.2708L13.6637 8.33333H11.05C10.9083 8.33333 10.7738 8.29861 10.6462 8.22917C10.5188 8.15972 10.4125 8.06944 10.3275 7.95833L9.605 6.875Z" fill="black"/>
</svg>
