<svg width="50" height="50" viewBox="0 0 50 50" fill="none" xmlns="http://www.w3.org/2000/svg">
<rect width="50" height="50" rx="10" fill="#A47850"/>
<path d="M14.5 40V25.8824H10L25 10L31 16.3529V11.7647H35.5V21.1176L40 25.8824H35.5V40H26.5V29.4118H23.5V40H14.5ZM17.5 36.4706H20.5V25.8824H29.5V36.4706H32.5V22.7059L25 14.7647L17.5 22.7059V36.4706ZM22 22.3971H28C28 21.4559 27.7 20.6838 27.1 20.0809C26.5 19.4779 25.8 19.1765 25 19.1765C24.2 19.1765 23.5 19.4779 22.9 20.0809C22.3 20.6838 22 21.4559 22 22.3971Z" fill="#CCD3AE"/>
</svg>
