<svg width="16" height="15" viewBox="0 0 16 15" fill="none" xmlns="http://www.w3.org/2000/svg">
<path d="M8 15C7.06103 15 6.18153 14.8187 5.3615 14.4561C4.54147 14.0935 3.82786 13.6037 3.22066 12.9866C2.61346 12.3696 2.13146 11.6444 1.77465 10.8111C1.41784 9.97774 1.23944 9.08397 1.23944 8.12977C1.23944 7.17557 1.41784 6.28181 1.77465 5.44847C2.13146 4.61514 2.61346 3.88995 3.22066 3.2729C3.82786 2.65585 4.54147 2.16603 5.3615 1.80344C6.18153 1.44084 7.06103 1.25954 8 1.25954C8.93897 1.25954 9.81847 1.44084 10.6385 1.80344C11.4585 2.16603 12.1721 2.65585 12.7793 3.2729C13.3865 3.88995 13.8685 4.61514 14.2254 5.44847C14.5822 6.28181 14.7606 7.17557 14.7606 8.12977C14.7606 9.08397 14.5822 9.97774 14.2254 10.8111C13.8685 11.6444 13.3865 12.3696 12.7793 12.9866C12.1721 13.6037 11.4585 14.0935 10.6385 14.4561C9.81847 14.8187 8.93897 15 8 15ZM10.1033 11.3359L11.1549 10.2672L8.75117 7.82443V4.31298H7.24883V8.43511L10.1033 11.3359ZM3.19249 0L4.24413 1.0687L1.05164 4.31298L0 3.24427L3.19249 0ZM12.8075 0L16 3.24427L14.9484 4.31298L11.7559 1.0687L12.8075 0ZM8 13.4733C9.46479 13.4733 10.7074 12.9548 11.7277 11.9179C12.748 10.881 13.2582 9.61832 13.2582 8.12977C13.2582 6.64122 12.748 5.3785 11.7277 4.3416C10.7074 3.30471 9.46479 2.78626 8 2.78626C6.53521 2.78626 5.29264 3.30471 4.2723 4.3416C3.25196 5.3785 2.74178 6.64122 2.74178 8.12977C2.74178 9.61832 3.25196 10.881 4.2723 11.9179C5.29264 12.9548 6.53521 13.4733 8 13.4733Z" fill="black"/>
</svg>
