<svg width="50" height="50" viewBox="0 0 50 50" fill="none" xmlns="http://www.w3.org/2000/svg">
<rect width="50" height="50" rx="10" fill="#A47850"/>
<path d="M23.6364 40L19.3068 35.25C17.6705 33.4444 16.267 31.8333 15.0966 30.4167C13.9261 29 12.9602 27.6667 12.1989 26.4167C11.4375 25.1667 10.8807 23.9583 10.5284 22.7917C10.1761 21.625 10 20.4028 10 19.125C10 16.5139 10.7159 14.3403 12.1477 12.6042C13.5795 10.8681 15.3636 10 17.5 10C18.6818 10 19.8068 10.3056 20.875 10.9167C21.9432 11.5278 22.8636 12.3889 23.6364 13.5C24.4091 12.3889 25.3295 11.5278 26.3977 10.9167C27.4659 10.3056 28.5909 10 29.7727 10C31.6818 10 33.4205 10.8194 34.9886 12.4583C36.5568 14.0972 37.3409 16.3194 37.3409 19.125C37.3409 19.5139 37.3182 19.9236 37.2727 20.3542C37.2273 20.7847 37.1591 21.2222 37.0682 21.6667H34.1705C34.2841 21.1667 34.375 20.6944 34.4432 20.25C34.5114 19.8056 34.5455 19.3889 34.5455 19C34.5455 16.9167 33.9773 15.4514 32.8409 14.6042C31.7045 13.7569 30.6818 13.3333 29.7727 13.3333C28.6136 13.3333 27.6136 13.7153 26.7727 14.4792C25.9318 15.2431 25.1477 16.25 24.4205 17.5H22.8523C22.1477 16.25 21.3466 15.2431 20.4489 14.4792C19.5511 13.7153 18.5682 13.3333 17.5 13.3333C16.2045 13.3333 15.0852 13.8819 14.142 14.9792C13.1989 16.0764 12.7273 17.4583 12.7273 19.125C12.7273 20.0417 12.8864 20.9722 13.2045 21.9167C13.5227 22.8611 14.0909 23.9514 14.9091 25.1875C15.7273 26.4236 16.8409 27.8681 18.25 29.5208C19.6591 31.1736 21.4545 33.1667 23.6364 35.5C24.2273 34.8611 24.9205 34.125 25.7159 33.2917C26.5114 32.4583 27.1477 31.7639 27.625 31.2083L27.9318 31.5833L28.5966 32.3958L29.2614 33.2083L29.5682 33.5833C29.0682 34.1389 28.4318 34.8264 27.6591 35.6458C26.8864 36.4653 26.2045 37.1944 25.6136 37.8333L23.6364 40ZM29.0909 28.3333V25H40V28.3333H29.0909Z" fill="#CCD3AE"/>
</svg>
