<svg width="30" height="30" viewBox="0 0 30 30" fill="none" xmlns="http://www.w3.org/2000/svg">
<path d="M13.6364 30L9.30682 25.25C7.67045 23.4444 6.26705 21.8333 5.09659 20.4167C3.92614 19 2.96023 17.6667 2.19886 16.4167C1.4375 15.1667 0.880682 13.9583 0.528409 12.7917C0.176136 11.625 0 10.4028 0 9.125C0 6.51389 0.715909 4.34028 2.14773 2.60417C3.57955 0.868056 5.36364 0 7.5 0C8.68182 0 9.80682 0.305556 10.875 0.916667C11.9432 1.52778 12.8636 2.38889 13.6364 3.5C14.4091 2.38889 15.3295 1.52778 16.3977 0.916667C17.4659 0.305556 18.5909 0 19.7727 0C21.6818 0 23.4205 0.819445 24.9886 2.45833C26.5568 4.09722 27.3409 6.31944 27.3409 9.125C27.3409 9.51389 27.3182 9.92361 27.2727 10.3542C27.2273 10.7847 27.1591 11.2222 27.0682 11.6667H24.1705C24.2841 11.1667 24.375 10.6944 24.4432 10.25C24.5114 9.80556 24.5455 9.38889 24.5455 9C24.5455 6.91667 23.9773 5.45139 22.8409 4.60417C21.7045 3.75694 20.6818 3.33333 19.7727 3.33333C18.6136 3.33333 17.6136 3.71528 16.7727 4.47917C15.9318 5.24306 15.1477 6.25 14.4205 7.5H12.8523C12.1477 6.25 11.3466 5.24306 10.4489 4.47917C9.55114 3.71528 8.56818 3.33333 7.5 3.33333C6.20455 3.33333 5.08523 3.88194 4.14205 4.97917C3.19886 6.07639 2.72727 7.45833 2.72727 9.125C2.72727 10.0417 2.88636 10.9722 3.20455 11.9167C3.52273 12.8611 4.09091 13.9514 4.90909 15.1875C5.72727 16.4236 6.84091 17.8681 8.25 19.5208C9.65909 21.1736 11.4545 23.1667 13.6364 25.5C14.2273 24.8611 14.9205 24.125 15.7159 23.2917C16.5114 22.4583 17.1477 21.7639 17.625 21.2083L17.9318 21.5833L18.5966 22.3958L19.2614 23.2083L19.5682 23.5833C19.0682 24.1389 18.4318 24.8264 17.6591 25.6458C16.8864 26.4653 16.2045 27.1944 15.6136 27.8333L13.6364 30ZM19.0909 18.3333V15H30V18.3333H19.0909Z" fill="#CCD3AE"/>
</svg>
