<svg width="16" height="16" viewBox="0 0 16 16" fill="none" xmlns="http://www.w3.org/2000/svg">
<path d="M8.08 16C6.96 16 5.91 15.7867 4.93 15.36C3.95 14.9333 3.09667 14.3567 2.37 13.63C1.64333 12.9033 1.06667 12.05 0.64 11.07C0.213333 10.09 0 9.04 0 7.92C0 5.97333 0.62 4.25667 1.86 2.77C3.1 1.28333 4.68 0.36 6.6 0C6.36 1.32 6.43333 2.61 6.82 3.87C7.20667 5.13 7.87333 6.23333 8.82 7.18C9.76667 8.12667 10.87 8.79333 12.13 9.18C13.39 9.56667 14.68 9.64 16 9.4C15.6533 11.32 14.7333 12.9 13.24 14.14C11.7467 15.38 10.0267 16 8.08 16ZM8.08 14.4C9.25333 14.4 10.34 14.1067 11.34 13.52C12.34 12.9333 13.1267 12.1267 13.7 11.1C12.5533 10.9933 11.4667 10.7033 10.44 10.23C9.41333 9.75667 8.49333 9.11333 7.68 8.3C6.86667 7.48667 6.22 6.56667 5.74 5.54C5.26 4.51333 4.97333 3.42667 4.88 2.28C3.85333 2.85333 3.05 3.64333 2.47 4.65C1.89 5.65667 1.6 6.74667 1.6 7.92C1.6 9.72 2.23 11.25 3.49 12.51C4.75 13.77 6.28 14.4 8.08 14.4Z" fill="black"/>
</svg>
