<svg width="22" height="21" viewBox="0 0 22 21" fill="none" xmlns="http://www.w3.org/2000/svg">
<path d="M14.9386 21C13.1602 21 11.6486 20.3875 10.4037 19.1625C9.15881 17.9375 8.53636 16.45 8.53636 14.7C8.53636 12.95 9.15881 11.4625 10.4037 10.2375C11.6486 9.0125 13.1602 8.4 14.9386 8.4C16.717 8.4 18.2287 9.0125 19.4736 10.2375C20.7185 11.4625 21.3409 12.95 21.3409 14.7C21.3409 16.45 20.7185 17.9375 19.4736 19.1625C18.2287 20.3875 16.717 21 14.9386 21ZM14.9386 18.9C16.1124 18.9 17.1172 18.4887 17.953 17.6663C18.7889 16.8438 19.2068 15.855 19.2068 14.7C19.2068 13.545 18.7889 12.5562 17.953 11.7337C17.1172 10.9113 16.1124 10.5 14.9386 10.5C13.7649 10.5 12.7601 10.9113 11.9242 11.7337C11.0884 12.5562 10.6705 13.545 10.6705 14.7C10.6705 15.855 11.0884 16.8438 11.9242 17.6663C12.7601 18.4887 13.7649 18.9 14.9386 18.9ZM2.13409 18.9C1.54722 18.9 1.04482 18.6944 0.626889 18.2831C0.208963 17.8719 0 17.3775 0 16.8V8.82C0 8.68 0.0133381 8.54 0.0400142 8.4C0.0666903 8.26 0.106705 8.12 0.160057 7.98L2.29415 3.15H2.13409C1.83176 3.15 1.57834 3.04937 1.37382 2.84812C1.1693 2.64687 1.06705 2.3975 1.06705 2.1V1.05C1.06705 0.7525 1.1693 0.503125 1.37382 0.301875C1.57834 0.100625 1.83176 0 2.13409 0H9.60341C9.90574 0 10.1592 0.100625 10.3637 0.301875C10.5682 0.503125 10.6705 0.7525 10.6705 1.05V2.1C10.6705 2.3975 10.5682 2.64687 10.3637 2.84812C10.1592 3.04937 9.90574 3.15 9.60341 3.15H9.44335L11.204 7.14C10.8661 7.315 10.546 7.49875 10.2436 7.69125C9.94131 7.88375 9.65676 8.1025 9.39 8.3475L7.1492 3.15H4.5883L2.13409 8.82V16.8H6.66903C6.75795 17.1675 6.878 17.5306 7.02916 17.8894C7.18033 18.2481 7.36261 18.585 7.57602 18.9H2.13409ZM14.9386 7.35C14.1917 7.35 13.5604 7.09625 13.0446 6.58875C12.5289 6.08125 12.271 5.46 12.271 4.725C12.271 3.99 12.5289 3.36875 13.0446 2.86125C13.5604 2.35375 14.1917 2.1 14.9386 2.1V7.35C14.9386 6.615 15.1965 5.99375 15.7122 5.48625C16.228 4.97875 16.8593 4.725 17.6062 4.725C18.3532 4.725 18.9845 4.97875 19.5003 5.48625C20.016 5.99375 20.2739 6.615 20.2739 7.35H14.9386Z" fill="black"/>
</svg>
