<svg width="9" height="13" viewBox="0 0 9 13" fill="none" xmlns="http://www.w3.org/2000/svg">
<path d="M0.692308 15L2.63077 5.16279L1.38462 5.65116V8.02326H0V4.74419L3.49615 3.24419C3.65769 3.17442 3.82788 3.13372 4.00673 3.12209C4.18558 3.11047 4.35577 3.13372 4.51731 3.19186C4.67885 3.25 4.83173 3.3314 4.97596 3.43605C5.12019 3.5407 5.23846 3.67442 5.33077 3.83721L6.02308 4.95349C6.32308 5.44186 6.72981 5.84302 7.24327 6.15698C7.75673 6.47093 8.34231 6.62791 9 6.62791V8.02326C8.19231 8.02326 7.47115 7.85465 6.83654 7.51744C6.20192 7.18023 5.65962 6.75 5.20962 6.22674L4.77692 8.37209L6.23077 9.76744V15H4.84615V10.4651L3.39231 9.34884L2.14615 15H0.692308ZM5.19231 2.7907C4.81154 2.7907 4.48558 2.65407 4.21442 2.38081C3.94327 2.10756 3.80769 1.77907 3.80769 1.39535C3.80769 1.01163 3.94327 0.68314 4.21442 0.409884C4.48558 0.136628 4.81154 0 5.19231 0C5.57308 0 5.89904 0.136628 6.17019 0.409884C6.44135 0.68314 6.57692 1.01163 6.57692 1.39535C6.57692 1.77907 6.44135 2.10756 6.17019 2.38081C5.89904 2.65407 5.57308 2.7907 5.19231 2.7907Z" fill="black"/>
</svg>
