<svg width="16" height="18" viewBox="0 0 16 18" fill="none" xmlns="http://www.w3.org/2000/svg">
<path d="M7.25 6.50008C6.48611 6.50008 5.73611 6.60772 5 6.823C4.26389 7.03828 3.58333 7.36119 2.95833 7.79175L3.83333 15.6667H12.1667L13.0833 7.33341H12.5C11.9722 7.33341 11.4931 7.29522 11.0625 7.21883C10.6319 7.14244 10.0417 6.99314 9.29167 6.77091C8.97222 6.67369 8.63889 6.60425 8.29167 6.56258C7.94444 6.52091 7.59722 6.50008 7.25 6.50008ZM2.75 5.97925C3.45833 5.60425 4.19097 5.31953 4.94792 5.12508C5.70486 4.93064 6.47917 4.83341 7.27083 4.83341C7.6875 4.83341 8.10069 4.86119 8.51042 4.91675C8.92014 4.9723 9.32639 5.05564 9.72917 5.16675C10.4236 5.36119 10.9549 5.49314 11.3229 5.56258C11.691 5.63203 12.0833 5.66675 12.5 5.66675H13.2708L13.625 2.33341H2.375L2.75 5.97925ZM3.8125 17.3334C3.38194 17.3334 3.01042 17.1945 2.69792 16.9167C2.38542 16.639 2.20833 16.2848 2.16667 15.8542L0.5 0.666748H15.5L13.8333 15.8542C13.7917 16.2848 13.6146 16.639 13.3021 16.9167C12.9896 17.1945 12.6181 17.3334 12.1875 17.3334H3.8125ZM7.25 15.6667H12.1667H3.83333H7.25Z" fill="black"/>
</svg>
