<svg width="20" height="20" viewBox="0 0 20 20" fill="none" xmlns="http://www.w3.org/2000/svg">
<path d="M11.4 19.9L9.99998 18.5L13.55 14.95L5.04998 6.44998L1.49998 9.99998L0.0999756 8.59998L1.49998 7.14998L0.0999756 5.74998L2.19998 3.64998L0.799976 2.19998L2.19998 0.799976L3.64998 2.19998L5.74998 0.0999756L7.14998 1.49998L8.59998 0.0999756L9.99998 1.49998L6.44998 5.04998L14.95 13.55L18.5 9.99998L19.9 11.4L18.5 12.85L19.9 14.25L17.8 16.35L19.2 17.8L17.8 19.2L16.35 17.8L14.25 19.9L12.85 18.5L11.4 19.9Z" fill="black"/>
</svg>
